<svg width="40" height="20" viewBox="0 0 159 67" fill="none" xmlns="http://www.w3.org/2000/svg" class="w-full lg:w-1/2 flex-shrink-0 md:mr-auto md:block">
  <path d="M45.395 53.6836V66.3873H47.706H50.0169V61.1697V55.9521H56.4966H62.9763V61.1697V66.3873H65.2872H67.5981V53.6836V40.9799H65.2872H62.9763V46.4697V51.9596H56.4966H50.0169V46.4697V40.9799H47.706H45.395V53.6836Z" fill="white"></path>

  <path d="M72.7003 49.1194C72.7275 57.1499 72.7366 57.277 72.9269 58.1572C73.9872 62.8394 77.0412 65.8066 81.7356 66.714C82.9409 66.9409 85.5147 66.9409 86.72 66.714C89.049 66.2603 90.9159 65.3348 92.4203 63.9011C94.0243 62.3585 94.9759 60.5981 95.5287 58.1572C95.719 57.277 95.7281 57.1499 95.7553 49.1194L95.7915 40.9799H93.4806H91.1696L91.1425 49.0287C91.1153 57.0048 91.1062 57.0955 90.9159 57.767C90.1818 60.2896 88.5053 62.0136 86.1762 62.6398C85.3515 62.8666 83.104 62.8666 82.2794 62.6398C79.9503 62.0136 78.2737 60.2896 77.5397 57.767C77.3494 57.0955 77.3403 57.0048 77.3131 49.0287L77.2859 40.9799H74.975H72.6641L72.7003 49.1194Z" fill="white"></path>

  <path d="M100.857 53.6836V66.3964L108.135 66.3692C115.276 66.3329 115.421 66.3329 116.381 66.1333C121.166 65.1261 123.532 62.2677 122.843 58.3205C122.58 56.796 121.855 55.4803 120.813 54.6273C120.233 54.1464 118.901 53.484 118.194 53.3207C117.931 53.2572 117.714 53.1846 117.714 53.1483C117.714 53.121 117.967 52.9759 118.285 52.8398C119.463 52.3225 120.605 51.2246 121.121 50.0994C121.52 49.2373 121.656 48.5386 121.647 47.3772C121.647 46.4516 121.601 46.1794 121.402 45.5623C120.677 43.3664 118.711 41.8601 115.72 41.1886C115.131 41.0616 114.134 41.0344 107.953 41.0072L100.857 40.9709V53.6836ZM114.66 45.0451C116.409 45.526 117.351 46.5514 117.351 47.967C117.351 49.2827 116.526 50.4533 115.149 51.0975C113.989 51.642 113.545 51.6873 109.286 51.6873H105.479V48.2301V44.7729L109.721 44.8092C113.708 44.8455 113.998 44.8636 114.66 45.0451ZM115.838 55.8886C116.708 56.1881 117.106 56.4422 117.605 56.9866C118.221 57.6581 118.393 58.1118 118.393 59.0827C118.393 59.7905 118.357 59.9629 118.149 60.3531C117.877 60.8794 117.179 61.569 116.653 61.8322C116.055 62.1407 115.176 62.3857 114.315 62.4855C113.871 62.5309 111.696 62.5762 109.494 62.5762H105.479V59.0736V55.5801L110.31 55.6073L115.131 55.6346L115.838 55.8886Z" fill="white"></path>

  <path d="M127.501 53.6836V66.3964L134.778 66.3692C141.919 66.3329 142.064 66.3329 143.025 66.1333C147.81 65.1261 150.175 62.2677 149.487 58.3205C149.224 56.796 148.499 55.4803 147.457 54.6273C146.877 54.1464 145.544 53.484 144.838 53.3207C144.575 53.2572 144.357 53.1846 144.357 53.1483C144.357 53.121 144.611 52.9759 144.928 52.8398C146.106 52.3225 147.248 51.2246 147.765 50.0994C148.163 49.2373 148.299 48.5386 148.29 47.3772C148.29 46.4516 148.245 46.1794 148.046 45.5623C147.321 43.3664 145.354 41.8601 142.363 41.1886C141.774 41.0616 140.778 41.0344 134.597 41.0072L127.501 40.9709V53.6836ZM141.303 45.0451C143.052 45.526 143.995 46.5514 143.995 47.967C143.995 49.2827 143.17 50.4533 141.793 51.0975C140.633 51.642 140.188 51.6873 135.929 51.6873H132.123V48.2301V44.7729L136.364 44.8092C140.352 44.8455 140.642 44.8636 141.303 45.0451ZM142.481 55.8886C143.351 56.1881 143.75 56.4422 144.248 56.9866C144.865 57.6581 145.037 58.1118 145.037 59.0827C145.037 59.7905 145.001 59.9629 144.792 60.3531C144.52 60.8794 143.823 61.569 143.297 61.8322C142.699 62.1407 141.82 62.3857 140.959 62.4855C140.515 62.5309 138.34 62.5762 136.138 62.5762H132.123V59.0736V55.5801L136.953 55.6073L141.774 55.6346L142.481 55.8886Z" fill="white"></path>

  <path d="M154.145 53.6836V66.3873H156.456H158.767V53.6836V40.9799H156.456H154.145V53.6836Z" fill="white"></path>
  <path d="M47.3889 0.0195503C43.2473 0.37344 40.2748 1.17196 37.0214 2.79622C29.1732 6.72529 23.772 14.3838 22.6936 23.1131C22.6211 23.7301 22.5576 24.3018 22.5576 24.3925C22.5576 24.5468 22.8023 24.5558 27.5148 24.5377L32.472 24.5105L32.5807 23.6394C33.5776 15.6996 40.1207 9.69251 48.1592 9.33862C53.8051 9.09363 59.3786 11.9973 62.4689 16.8157C63.6832 18.7031 64.5714 21.0805 64.8795 23.2401C64.9339 23.6394 64.9973 24.1021 65.0245 24.2564L65.0698 24.5558H70.0451C74.7667 24.5558 75.0295 24.5468 75.0295 24.3925C75.0295 24.3018 74.9661 23.7301 74.8936 23.1131C73.4073 11.1444 63.9551 1.68011 52.0017 0.191957C50.887 0.0558472 48.1682 -0.0439682 47.3889 0.0195503Z" fill="white"></path>

  <path d="M14.8996 24.8825C11.8364 25.2909 9.07238 26.4251 6.65269 28.2581C5.85519 28.8661 4.31457 30.3905 3.66207 31.2253C0.934257 34.7098 -0.370742 39.1742 0.091445 43.4118C0.444882 46.7329 1.63207 49.6729 3.66207 52.2772C4.43238 53.2663 6.10894 54.8724 7.15113 55.6074C8.77332 56.7598 11.0571 57.8033 12.9693 58.2661C13.8664 58.4838 14.0205 58.4929 16.8208 58.4929H19.748L19.5577 58.0211C18.878 56.297 18.6514 53.7744 19.0139 51.9051C19.1771 51.0613 19.4308 50.1538 19.7027 49.4824C19.7661 49.3372 19.6664 49.3281 18.4158 49.3281C16.9296 49.3281 16.3224 49.2464 15.3074 48.9107C13.1958 48.2211 11.2474 46.2701 10.5586 44.1559C9.82457 41.9237 10.0511 39.6279 11.2021 37.6679C11.9814 36.325 13.5674 34.9638 14.9539 34.4375C16.1955 33.9566 16.2046 33.9566 20.4277 33.9113L24.4061 33.8568L28.3302 29.3651C30.478 26.897 32.2452 24.8462 32.2452 24.8009C32.2542 24.7646 28.5568 24.7374 24.0346 24.7464C17.6908 24.7555 15.5974 24.7827 14.8996 24.8825Z" fill="white"></path>
  
  <path d="M29.1549 45.4353C27.433 45.6894 25.7565 46.4788 24.4877 47.6403C22.5574 49.4098 21.479 52.377 21.8233 54.9903C22.3671 59.0555 25.3305 61.9864 29.4268 62.4946C31.8918 62.8031 34.6377 61.8503 36.4321 60.0446C38.2355 58.2479 39.1871 55.4985 38.879 53.0303C38.6887 51.4605 38.2083 50.2083 37.3111 48.9016C35.5893 46.4062 32.2361 44.9816 29.1549 45.4353Z" fill="white"></path>
</svg>